<?xml version="1.0" encoding="UTF-8"?><svg xmlns="http://www.w3.org/2000/svg" xml:space="preserve" width="262.728" height="274.39" viewBox="0 0 262.728 274.39"><path d="M221.23 274.39c-60.315-.002-120.14.005-179.965-.01C17.855 274.374.07 256.76.043 233.33-.027 170.171.012 107.013.001 43.855-.003 17.628 15.986.465 42.184.292 101.339-.1 160.5-.087 219.656.265c23.461.14 38.45 12.867 42.501 34.33.965 5.113.38 10.308.41 15.463.07 12.665-.093 25.331.069 37.994.05 3.902-1.338 5.39-5.233 5.248-5.658-.209-11.343-.293-16.992.017-4.535.25-6.166-1.29-6.103-5.94.202-14.994.06-29.994-.01-44.991-.046-9.997-4.268-14.14-14.387-14.14q-88.987-.005-177.974.034c-8.95.004-13.905 5.013-13.894 13.885.077 62.99.155 125.978.216 188.967.004 4.379-.076 8.743 3.623 11.986 2.876 2.52 6.166 3.683 10.05 3.68 59.492-.053 118.984-.031 178.475-.066 9.094-.005 13.934-4.813 13.966-13.811.053-14.998.143-29.998-.075-44.992-.069-4.796 1.577-6.525 6.388-6.231 5.81.354 11.662.18 17.49.043 3.194-.075 4.456 1.159 4.439 4.388-.092 16.997.414 34.01-.184 50.988-.74 21.047-18.774 37.148-41.201 37.273z" style="fill:#1a1a1a;fill-opacity:1"/><path d="M116.744 77.567c1.473.847 2.782 1.34 3.755 2.21 7.404 6.619 14.173 5.39 22.119.042 11.725-7.891 24.366-14.411 36.462-21.77 3.623-2.203 6.53-2.172 10.068.063 6.192 3.913 12.632 7.434 18.973 11.111 1.605.931 3.297 1.826 3.303 4.012.024 9.623.01 19.248.01 28.613-2.467 1.18-3.74-.293-5.097-1.056-6.244-3.509-12.476-7.046-18.606-10.749-2.72-1.643-5.025-1.758-7.848-.08-14.462 8.593-29.089 16.91-43.504 25.58-3.604 2.168-6.324 2.248-9.991.016-13.658-8.313-27.536-16.264-41.346-24.326-1.412-.824-2.773-1.859-5.129-1.832-.907 6.18-.48 12.425-.26 18.65.069 1.94 1.85 2.66 3.252 3.502 15.281 9.178 30.625 18.253 45.825 27.561 2.613 1.6 4.235.598 6.291-.637 14.851-8.922 29.783-17.708 44.572-26.73 3.279-1.999 5.88-2.014 9.15.006 5.947 3.673 12.103 7.028 18.3 10.269 3.151 1.647 4.573 3.679 4.546 7.418-.16 22.161-.122 44.324-.014 66.487.016 3.359-.972 5.6-3.978 7.323-6.646 3.808-13.117 7.921-19.68 11.877-1.098.662-2.133 1.69-4.565.816v-73.879c-8.09 4.737-14.94 8.707-21.75 12.746-8.738 5.183-17.512 10.314-26.128 15.696-2.955 1.846-5.3 1.77-8.242.002a12936 12936 0 0 0-72.109-42.998c-2.76-1.634-3.957-3.664-3.94-6.86q.117-22.745-.04-45.49c-.019-2.872 1.1-4.6 3.55-5.976 6.828-3.831 13.618-7.738 20.294-11.826 2.64-1.616 4.837-1.483 7.396.037 11.314 6.72 22.688 13.338 34.361 20.172" style="fill:#1a1a1a"/><path d="M169.524 189.063c-.037 15.716-.074 15.653-13.501 23.376a553 553 0 0 0-20.93 12.664c-2.761 1.756-4.941 1.738-7.734-.002-13.563-8.448-27.235-16.72-40.894-25.014-1.935-1.175-4.006-2.126-6.384-3.375-1.489 6.806.161 13.168-1.078 19.185-2.153 1.111-3.382-.42-4.72-1.211-6.59-3.897-13.11-7.913-19.696-11.817-1.986-1.177-3.437-2.541-3.428-5.055.054-15.65.072-31.3.133-46.951.002-.625.32-1.248.47-1.795 2.22-.973 3.655.447 5.165 1.348 23.58 14.077 47.175 28.132 70.675 42.344 2.651 1.604 4.557 1.709 7.19.054 9.44-5.935 19.02-11.649 28.582-17.388 1.515-.91 2.925-2.263 5.553-1.885 1.208 4.87.35 9.991.597 15.522z" style="fill:#1a1a1a"/></svg>